# xmcd CD database file
#
# Track frame offsets:
#	150
#	28043
#	57812
#	66518
#	91514
#	101671
#	139619
#	145380
#	180560
#	194994
#
# Disc length: 2919 seconds
#
# Revision: 0
# Processed by: cddbd v1.5.2PL0 Copyright (c) Steve Scherf et al.
# Submitted via: CDex 1.70beta2
#
DISCID=910b650a
DTITLE=Roland Neffe - Vibes Beyond
DYEAR=2009
DGENRE=Jazz
TTITLE0=Fluxx
TTITLE1=Speak
TTITLE2=Preface
TTITLE3=Sound of Äther
TTITLE4=Line of Restlessness
TTITLE5=Heavy Line
TTITLE6=so so
TTITLE7=Visionary
TTITLE8=Grey Shortcut
TTITLE9=Escape from Nomansland
EXTD=YEAR: 2009
EXTT0=
EXTT1=
EXTT2=
EXTT3=
EXTT4=
EXTT5=
EXTT6=
EXTT7=
EXTT8=
EXTT9=
PLAYORDER=
